<?xml version="1.0" encoding="UTF-8" standalone="no"?>
<!-- Created with Inkscape (http://www.inkscape.org/) -->

<svg
   width="20"
   height="20"
   viewBox="0 0 20 20"
   version="1.1"
   id="svg1"
   inkscape:version="1.4.2 (f4327f4, 2025-05-13)"
   sodipodi:docname="Icon20.svg"
   xmlns:inkscape="http://www.inkscape.org/namespaces/inkscape"
   xmlns:sodipodi="http://sodipodi.sourceforge.net/DTD/sodipodi-0.dtd"
   xmlns="http://www.w3.org/2000/svg"
   xmlns:svg="http://www.w3.org/2000/svg">
  <sodipodi:namedview
     id="namedview1"
     pagecolor="#505050"
     bordercolor="#eeeeee"
     borderopacity="1"
     inkscape:showpageshadow="0"
     inkscape:pageopacity="0"
     inkscape:pagecheckerboard="0"
     inkscape:deskcolor="#505050"
     inkscape:document-units="px"
     showgrid="true"
     showguides="true"
     inkscape:zoom="35.664698"
     inkscape:cx="11.383806"
     inkscape:cy="10.136073"
     inkscape:window-width="1920"
     inkscape:window-height="1009"
     inkscape:window-x="-8"
     inkscape:window-y="-8"
     inkscape:window-maximized="1"
     inkscape:current-layer="layer1"
     inkscape:export-bgcolor="#00000000">
    <inkscape:grid
       id="grid1"
       units="px"
       originx="0"
       originy="0"
       spacingx="1"
       spacingy="1"
       empcolor="#0099e5"
       empopacity="0.30196078"
       color="#0099e5"
       opacity="0.14901961"
       empspacing="5"
       enabled="true"
       visible="true" />
  </sodipodi:namedview>
  <defs
     id="defs1" />
  <g
     inkscape:groupmode="layer"
     id="layer1"
     style="fill:#ffffff;stroke-width:0">
    <path
       d="M 6,1 C 5.446,1 5,1.446 5,2 V 3 H 4 C 3.446,3 3,3.446 3,4 V 5 H 2 C 1.446,5 1,5.446 1,6 1,6.554 1.446,7 2,7 H 3 V 9 H 2 c -0.554,0 -1,0.446 -1,1 0,0.554 0.446,1 1,1 h 1 v 2 H 2 c -0.554,0 -1,0.446 -1,1 0,0.554 0.446,1 1,1 h 1 v 1 c 0,0.554 0.446,1 1,1 h 1 v 1 c 0,0.554 0.446,1 1,1 0.554,0 1,-0.446 1,-1 v -1 h 2 v 1 c 0,0.554 0.446,1 1,1 0.554,0 1,-0.446 1,-1 v -1 h 2 v 1 c 0,0.554 0.446,1 1,1 0.554,0 1,-0.446 1,-1 v -1 h 1 c 0.554,0 1,-0.446 1,-1 v -1 h 1 c 0.554,0 1,-0.446 1,-1 0,-0.554 -0.446,-1 -1,-1 h -1 v -2 h 1 c 0.554,0 1,-0.446 1,-1 C 19,9.446 18.554,9 18,9 H 17 V 7 h 1 C 18.554,7 19,6.554 19,6 19,5.446 18.554,5 18,5 H 17 V 4 C 17,3.446 16.554,3 16,3 H 15 V 2 C 15,1.446 14.554,1 14,1 13.446,1 13,1.446 13,2 V 3 H 11 V 2 C 11,1.446 10.554,1 10,1 9.446,1 9,1.446 9,2 V 3 H 7 V 2 C 7,1.446 6.554,1 6,1 Z m 0,4 h 1 2 2 2 1 c 0.554,0 1,0.446 1,1 v 1 2 2 2 1 c 0,0.554 -0.446,1 -1,1 H 13 11 9 7 6 C 5.446,15 5,14.554 5,14 V 13 11 9 7 6 C 5,5.446 5.446,5 6,5 Z"
       id="cpu"
       style="fill:#aaaaaa" />
    <rect
       id="epic"
       width="2"
       height="4"
       x="6"
       y="10"
       ry="1" />
    <rect
       id="medium"
       width="2"
       height="6"
       x="9"
       y="8"
       ry="1" />
    <rect
       id="high"
       width="2"
       height="8"
       x="12"
       y="6"
       ry="1" />
  </g>
</svg>
